<?xml version="1.0" encoding="UTF-8" standalone="no"?>
<!DOCTYPE svg PUBLIC "-//W3C//DTD SVG 1.1//EN" "http://www.w3.org/Graphics/SVG/1.1/DTD/svg11.dtd">
<svg width="100%" height="100%" viewBox="0 0 2000 400" version="1.1" xmlns="http://www.w3.org/2000/svg" xmlns:xlink="http://www.w3.org/1999/xlink" xml:space="preserve" xmlns:serif="http://www.serif.com/" style="fill-rule:evenodd;clip-rule:evenodd;stroke-linecap:round;stroke-linejoin:round;stroke-miterlimit:1.5;">
  <title>SrcFlow</title>
  <path id="wordmark" d="M1019.66,348.773C1002.52,348.773 987.131,343.825 973.494,333.929C959.858,324.033 949.086,310.539 941.179,293.446C933.272,276.353 929.318,257.106 929.318,235.705C929.318,214.208 933.272,194.938 941.179,177.892C949.086,160.847 959.858,147.376 973.494,137.48C987.131,127.584 1002.52,122.636 1019.66,122.636C1036.8,122.636 1052.16,127.608 1065.75,137.551C1079.34,147.494 1090.11,160.989 1098.07,178.034C1106.02,195.08 1110,214.303 1110,235.705C1110,257.106 1106.05,276.353 1098.14,293.446C1090.23,310.539 1079.46,324.033 1065.82,333.929C1052.19,343.825 1036.8,348.773 1019.66,348.773ZM479.318,348.773C461.705,348.773 446.009,343.825 432.23,333.929C418.452,324.033 407.609,310.563 399.702,293.517C391.795,276.472 387.841,257.201 387.841,235.705C387.841,214.398 391.771,195.198 399.631,178.105C407.491,161.012 418.31,147.494 432.088,137.551C445.866,127.608 461.61,122.636 479.318,122.636C492.386,122.636 504.389,125.454 515.327,131.088C526.264,136.723 535.426,144.582 542.813,154.668C550.199,164.753 554.981,176.424 557.159,189.682L547.5,189.682C544.564,172.542 536.776,158.598 524.134,147.849C511.491,137.101 496.553,131.727 479.318,131.727C463.693,131.727 449.654,136.249 437.202,145.293C424.749,154.336 414.924,166.694 407.727,182.366C400.53,198.039 396.932,215.818 396.932,235.705C396.932,255.023 400.412,272.542 407.372,288.261C414.332,303.981 424.015,316.481 436.42,325.761C448.826,335.042 463.125,339.682 479.318,339.682C496.742,339.682 511.894,334.284 524.773,323.489C537.652,312.693 545.417,298.394 548.068,280.591L557.727,280.591C555.644,294.322 550.909,306.301 543.523,316.528C536.136,326.756 526.903,334.687 515.824,340.321C504.744,345.955 492.576,348.773 479.318,348.773ZM180.455,126.045C179.034,106.159 171.435,89.824 157.656,77.04C143.878,64.256 125.72,57.864 103.182,57.864C88.409,57.864 75.199,60.705 63.551,66.386C51.903,72.068 42.718,79.857 35.994,89.753C29.271,99.649 25.909,110.989 25.909,123.773C25.909,152.939 46.364,173.773 87.273,186.273L120.227,196.5C145.417,204.265 163.93,214.043 175.767,225.832C187.604,237.622 193.523,252.466 193.523,270.364C193.523,285.515 189.64,299.009 181.875,310.847C174.11,322.684 163.267,331.964 149.347,338.688C135.426,345.411 119.28,348.773 100.909,348.773C83.201,348.773 67.718,345.671 54.46,339.469C41.203,333.266 30.715,324.696 22.997,313.759C15.279,302.821 10.947,290.25 10,276.045L19.091,276.045C20.511,294.89 28.513,310.207 43.097,321.997C57.68,333.787 76.951,339.682 100.909,339.682C117.576,339.682 132.183,336.77 144.73,330.946C157.277,325.122 167.031,317.002 173.991,306.585C180.952,296.169 184.432,284.095 184.432,270.364C184.432,254.739 179.223,241.86 168.807,231.727C158.39,221.595 141.439,212.883 117.955,205.591L85,195.364C39.545,181.064 16.818,157.201 16.818,123.773C16.818,109.473 20.559,96.666 28.04,85.349C35.521,74.033 45.772,65.108 58.793,58.574C71.813,52.04 86.61,48.773 103.182,48.773C119.848,48.773 134.479,52.087 147.074,58.716C159.669,65.345 169.659,74.483 177.045,86.131C184.432,97.778 188.598,111.083 189.545,126.045L180.455,126.045ZM1213.41,344.227L1148.64,126.045L1158.3,126.045L1219.09,331.727L1220.23,331.727L1281.59,126.045L1290.68,126.045L1352.05,331.727L1353.18,331.727L1413.98,126.045L1423.64,126.045L1358.86,344.227L1346.36,344.227L1286.7,143.091L1285.57,143.091L1225.91,344.227L1213.41,344.227ZM865.114,53.318L865.114,344.227L856.023,344.227L856.023,53.318L865.114,53.318ZM262.841,344.227L262.841,126.045L271.932,126.045L271.932,160.705L273.068,160.705C278.182,149.341 286.586,140.25 298.281,133.432C309.976,126.614 323.352,123.205 338.409,123.205C343.144,123.205 347.618,123.56 351.832,124.27C356.046,124.98 359.905,125.951 363.409,127.182L360,135.705C353.75,133.432 346.553,132.295 338.409,132.295C325.53,132.295 314.096,135.089 304.105,140.676C294.115,146.263 286.255,153.981 280.526,163.83C274.796,173.678 271.932,184.947 271.932,197.636L271.932,344.227L262.841,344.227ZM628.75,344.227L628.75,53.318L785,53.318L785,62.409L637.841,62.409L637.841,194.227L771.364,194.227L771.364,203.318L637.841,203.318L637.841,344.227L628.75,344.227ZM1019.66,339.682C1035.1,339.682 1048.94,335.136 1061.21,326.045C1073.47,316.955 1083.15,304.549 1090.26,288.83C1097.36,273.11 1100.91,255.402 1100.91,235.705C1100.91,216.008 1097.33,198.323 1090.18,182.651C1083.04,166.978 1073.35,154.573 1061.14,145.435C1048.92,136.296 1035.1,131.727 1019.66,131.727C1004.32,131.727 990.516,136.296 978.253,145.435C965.99,154.573 956.283,166.978 949.134,182.651C941.984,198.323 938.409,216.008 938.409,235.705C938.409,255.402 941.96,273.11 949.063,288.83C956.165,304.549 965.848,316.955 978.111,326.045C990.374,335.136 1004.22,339.682 1019.66,339.682Z" style="fill:rgb(64,64,64);fill-rule:nonzero;"/>
  <g id="logomark">
    <circle id="circle" cx="1740" cy="330" r="30" style="fill:rgb(168,216,240);stroke:rgb(82,177,224);stroke-width:6px;"/>
    <rect x="1451.56" y="325" width="242.438" height="10" style="fill:rgb(242,242,242);"/>
    <path d="M1811.81,236.949L1766.82,290.572L1774.48,297L1819.47,243.377L1811.81,236.949Z" style="fill:rgb(179,179,179);"/>
    <circle id="circle1" serif:id="circle" cx="1840" cy="200" r="30" style="fill:rgb(247,191,151);stroke:rgb(240,139,66);stroke-width:6px;"/>
    <rect x="1686" y="195" width="108" height="10" style="fill:rgb(179,179,179);"/>
    <circle id="circle2" serif:id="circle" cx="1640" cy="200" r="30" style="fill:rgb(247,191,151);stroke:rgb(240,139,66);stroke-width:6px;"/>
    <rect x="1484.42" y="195" width="109.573" height="10" style="fill:rgb(242,242,242);"/>
    <path d="M1712.67,107.175L1667.67,160.798L1675.33,167.226L1720.33,113.603L1712.67,107.175Z" style="fill:rgb(179,179,179);"/>
    <circle id="circle3" serif:id="circle" cx="1940" cy="70" r="30" style="fill:rgb(201,219,112);stroke:rgb(161,184,46);stroke-width:6px;"/>
    <rect x="1786" y="65" width="108" height="10" style="fill:rgb(179,179,179);"/>
    <circle id="circle4" serif:id="circle" cx="1740" cy="70" r="30" style="fill:rgb(201,219,112);stroke:rgb(161,184,46);stroke-width:6px;"/>
    <rect x="949.318" y="65" width="744.682" height="10" style="fill:rgb(242,242,242);"/>
  </g>
</svg>
